<svg width="105" height="85" viewBox="0 0 105 85" fill="none" xmlns="http://www.w3.org/2000/svg">
<path d="M8.51627 0H96.5807C98.9031 0 101.032 0.967499 102.484 2.51628C104.032 4.06436 105 6.09692 105 8.51627V76.2581C105 78.5805 104.033 80.7099 102.484 82.1612C101.032 83.7092 98.9031 84.6774 96.5807 84.6774H8.51627C6.09692 84.6774 4.06451 83.7099 2.51628 82.1612C0.968194 80.7093 0 78.5805 0 76.2581V8.51627C0 6.09692 0.967499 4.06451 2.51628 2.51628C4.06436 0.968194 6.09692 0 8.51627 0V0ZM64.4517 39.5806L42.9678 61.0644C45.5809 63.0968 48.8709 64.355 52.5483 64.355C56.7096 64.355 60.4838 62.6131 63.2901 59.9033C66.0001 57.097 67.7418 53.3227 67.7418 49.1615C67.7418 45.4841 66.4837 42.1941 64.4512 39.581L64.4517 39.5806ZM40.5485 58.6451L62.0323 37.258C59.4193 35.1293 56.1293 33.8712 52.5486 33.8712C48.2906 33.8712 44.5162 35.6131 41.7099 38.323C38.9999 41.1293 37.2582 44.9036 37.2582 49.1617C37.2582 52.7423 38.5163 56.0328 40.5488 58.6454L40.5485 58.6451ZM52.5483 30.4838C57.6776 30.4838 62.3226 32.6126 65.7094 35.9032C69.0962 39.29 71.1288 43.9356 71.1288 49.1612C71.1288 54.2905 69.0964 58.9355 65.7094 62.3223C62.3226 65.7091 57.677 67.7417 52.5483 67.7417C47.3227 67.7417 42.6772 65.7093 39.2903 62.3223C35.9996 58.9355 33.8709 54.2899 33.8709 49.1612C33.8709 43.9356 35.9996 39.2901 39.2903 35.9032C42.6771 32.6126 47.3227 30.4838 52.5483 30.4838V30.4838ZM16.9355 6.77418C17.903 6.77418 18.6774 7.54854 18.6774 8.51612C18.6774 9.38734 17.903 10.1611 16.9355 10.1611C15.968 10.1611 15.2905 9.38676 15.2905 8.51612C15.2905 7.54862 15.9679 6.77418 16.9355 6.77418ZM10.1611 6.77418C11.1286 6.77418 11.9031 7.54854 11.9031 8.51612C11.9031 9.38734 11.1287 10.1611 10.1611 10.1611C9.19363 10.1611 8.51612 9.38676 8.51612 8.51612C8.51612 7.54862 9.19361 6.77418 10.1611 6.77418ZM23.7098 10.161C22.7423 10.161 21.9679 9.38661 21.9679 8.51596C21.9679 7.54847 22.7422 6.77403 23.7098 6.77403H44.0323C44.9998 6.77403 45.6774 7.54839 45.6774 8.51596C45.6774 9.38719 44.9999 10.161 44.0323 10.161H23.7098ZM3.38724 13.5478H101.613V8.51536C101.613 7.06351 101.032 5.80538 100.161 4.83795C99.1936 3.96672 97.9354 3.38609 96.5804 3.38609H8.51603C7.06417 3.38609 5.80605 3.96671 4.83861 4.83795C3.96739 5.80544 3.38676 7.0636 3.38676 8.51536L3.38724 13.5478ZM101.613 16.9346H3.38724V76.257C3.38724 77.612 3.96786 78.8701 4.8391 79.8377C5.80659 80.7089 7.06475 81.2895 8.51651 81.2895H96.5809C97.9359 81.2895 99.1939 80.7089 100.162 79.8377C101.033 78.8702 101.613 77.612 101.613 76.257L101.613 16.9346Z" fill="white"/>
</svg>
