<svg width="118" height="106" viewBox="0 0 118 106" fill="none" xmlns="http://www.w3.org/2000/svg">
<rect x="1.22741" y="18.1416" width="50.1791" height="61.7515" rx="2.27051" transform="rotate(-19.6988 1.22741 18.1416)" fill="#0F1216" stroke="white" stroke-width="1.92"/>
<rect x="8.79804" y="28.2616" width="42.6816" height="45.4692" rx="2.27051" transform="rotate(-19.6988 8.79804 28.2616)" fill="#0F1216" stroke="white" stroke-width="1.92"/>
<rect x="0.49141" y="-1.03953" width="7.6659" height="1.6261" rx="0.81305" transform="matrix(0.941478 -0.337075 -0.337075 -0.941478 6.46678 23.6414)" fill="#0F1216" stroke="white" stroke-width="1.6261"/>
<rect x="0.49141" y="-1.03953" width="7.6659" height="1.6261" rx="0.81305" transform="matrix(0.941478 -0.337075 -0.337075 -0.941478 5.21364 20.1424)" fill="#0F1216" stroke="white" stroke-width="1.6261"/>
<circle cx="44.3245" cy="8.35409" r="2.5245" transform="rotate(-19.6988 44.3245 8.35409)" stroke="white" stroke-width="1.92"/>
<circle cx="30.199" cy="39.5935" r="1.6522" transform="rotate(-19.6988 30.199 39.5935)" fill="#808080"/>
<circle cx="39.1298" cy="36.3957" r="1.6522" transform="rotate(-19.6988 39.1298 36.3957)" fill="#808080"/>
<path d="M30.8803 51.4373C32.4617 47.9543 37.8251 41.9505 46.6276 45.7993" stroke="white" stroke-width="1.92" stroke-linecap="round"/>
<rect x="72.4623" y="9.21188" width="50.1791" height="61.7515" rx="2.27051" transform="rotate(30.3401 72.4623 9.21188)" fill="#0F1216" stroke="white" stroke-width="1.92"/>
<rect x="69.5685" y="21.5147" width="42.6816" height="45.4692" rx="2.27051" transform="rotate(30.3401 69.5685 21.5147)" fill="#0F1216" stroke="white" stroke-width="1.92"/>
<rect x="1.11239" y="-0.290999" width="7.6659" height="1.6261" rx="0.81305" transform="matrix(0.863042 0.505132 0.505132 -0.863042 70.6976 17.0923)" fill="#0F1216" stroke="white" stroke-width="1.6261"/>
<rect x="1.11239" y="-0.290999" width="7.6659" height="1.6261" rx="0.81305" transform="matrix(0.863042 0.505132 0.505132 -0.863042 72.575 13.8846)" fill="#0F1216" stroke="white" stroke-width="1.6261"/>
<circle cx="107.644" cy="35.9585" r="2.5245" transform="rotate(30.3401 107.644 35.9585)" fill="#0F1216" stroke="white" stroke-width="1.92"/>
<circle cx="74.6274" cy="45.1954" r="1.6522" transform="rotate(30.3401 74.6274 45.1954)" fill="#0F1216"/>
<circle cx="82.8142" cy="49.9875" r="1.6522" transform="rotate(30.3401 82.8142 49.9875)" fill="#0F1216"/>
<path d="M65.9875 53.3254C69.6728 52.3006 77.7193 52.5555 80.4229 61.7744" stroke="white" stroke-width="1.92" stroke-linecap="round"/>
<rect x="55.124" y="1.17427" width="50.1791" height="61.7515" rx="2.27051" transform="rotate(14.8749 55.124 1.17427)" fill="#0F1216" stroke="white" stroke-width="1.92"/>
<rect x="55.6149" y="13.8033" width="42.6816" height="45.4692" rx="2.27051" transform="rotate(14.8749 55.6149 13.8033)" fill="#0F1216" stroke="white" stroke-width="1.92"/>
<rect x="0.994522" y="-0.577086" width="7.6659" height="1.6261" rx="0.81305" transform="matrix(0.966489 0.256709 0.256709 -0.966489 55.7121 8.99353)" fill="#0F1216" stroke="white" stroke-width="1.6261"/>
<rect x="0.994522" y="-0.577086" width="7.6659" height="1.6261" rx="0.81305" transform="matrix(0.966489 0.256709 0.256709 -0.966489 56.6658 5.40146)" fill="#0F1216" stroke="white" stroke-width="1.6261"/>
<circle cx="96.1637" cy="17.5714" r="2.5245" transform="rotate(14.8749 96.1637 17.5714)" stroke="white" stroke-width="1.92"/>
<circle cx="66.8057" cy="35.278" r="1.6522" transform="rotate(14.8749 66.8057 35.278)" fill="#808080"/>
<circle cx="75.9743" cy="37.7131" r="1.6522" transform="rotate(14.8749 75.9743 37.7131)" fill="#808080"/>
<path d="M60.6462 45.4168C63.9248 43.4463 71.748 41.5464 76.8119 49.7106" stroke="white" stroke-width="1.92" stroke-linecap="round"/>
<path d="M50.4089 89.6682L67.8314 72.7103" stroke="white" stroke-width="1.92"/>
<path d="M20.4422 102.231V53.4108C20.4422 51.8815 21.6819 50.6418 23.2112 50.6418H45.7629C47.1742 50.6418 48.3182 51.7858 48.3182 53.1971C48.3182 54.6083 49.4623 55.7524 50.8735 55.7524H95.0291C96.5584 55.7524 97.7981 56.9921 97.7981 58.5214V102.231C97.7981 103.76 96.5584 105 95.0291 105H23.2112C21.6819 105 20.4422 103.76 20.4422 102.231Z" fill="#0F1216" stroke="white" stroke-width="1.92"/>
<circle cx="59.004" cy="81.0731" r="11.8165" fill="#0F1216" stroke="white" stroke-width="1.92"/>
<path d="M50.8391 88.5909L66.9466 73.4902" stroke="white" stroke-width="1.92" stroke-linecap="square"/>
</svg>
