<svg width="20" height="20" viewBox="0 0 20 20" fill="none" xmlns="http://www.w3.org/2000/svg">
<path d="M7.21104 1H16.392C17.1098 1 17.7619 1.29295 18.2343 1.76554C18.7069 2.23812 18.9999 2.89023 18.9999 3.60785V12.7199C18.9999 13.4377 18.7069 14.0898 18.2343 14.5622C17.7617 15.0348 17.1096 15.3278 16.392 15.3278H15.3967V16.3922C15.3967 17.1099 15.103 17.762 14.6311 18.2345C14.1585 18.707 13.5064 19 12.7888 19H3.60785C2.89009 19 2.23798 18.707 1.76554 18.2345C1.29295 17.7619 1 17.1098 1 16.3922V7.2801C1 6.56234 1.29295 5.91023 1.76554 5.43778C2.23812 4.9652 2.89023 4.67225 3.60785 4.67225H4.60319V3.60785C4.60319 2.89009 4.89683 2.23798 5.36873 1.76554C5.84131 1.29295 6.49343 1 7.21104 1ZM14.5113 15.3277H7.21104C6.49329 15.3277 5.84117 15.0347 5.36873 14.5621C4.89615 14.0896 4.60319 13.4374 4.60319 12.7198V5.55775H3.60785C3.13414 5.55775 2.70413 5.75154 2.39167 6.06398C2.0792 6.37643 1.88543 6.80702 1.88543 7.28017V16.3922C1.88543 16.8659 2.07922 17.2959 2.39167 17.6084C2.70411 17.9209 3.1347 18.1146 3.60785 18.1146H12.7888C13.262 18.1146 13.6925 17.9208 14.005 17.6084C14.3175 17.2959 14.5112 16.8654 14.5112 16.3922L14.5113 15.3277ZM16.3916 1.88533H7.21058C6.73744 1.88533 6.30687 2.07912 5.9944 2.39156C5.68194 2.704 5.48817 3.1346 5.48817 3.60774V12.7191C5.48817 13.1922 5.68196 13.6228 5.9944 13.9353C6.30684 14.2477 6.73744 14.4415 7.21058 14.4415H16.3916C16.8653 14.4415 17.2953 14.2477 17.6077 13.9353C17.9202 13.6228 18.114 13.1922 18.114 12.7191V3.60704C18.114 3.13333 17.9202 2.70332 17.6077 2.39086C17.2953 2.0784 16.8647 1.88462 16.3916 1.88462V1.88533Z" fill="white" stroke="white" stroke-width="0.6"/>
</svg>
