<svg width="19" height="19" viewBox="0 0 19 19" fill="none" xmlns="http://www.w3.org/2000/svg">
<path fill-rule="evenodd" clip-rule="evenodd" d="M0.484375 0.160156V10.1355H8.48438V0.160156H0.484375ZM10.4844 8.14045V18.1158H18.4844V8.14045H10.4844ZM6.48438 8.14146V2.15625H2.48438V8.14146H6.48438ZM0.484375 12.1289V18.1141H8.48438V12.1289H0.484375ZM2.48438 16.1201H6.48438V14.125H2.48438V16.1201ZM16.4844 16.1219H12.4844V10.1367H16.4844V16.1219ZM10.4844 0.160156H18.4844V6.14538H10.4844V0.160156ZM12.4844 4.15132V2.15625H16.4844V4.15132H12.4844Z" fill="white"/>
<path d="M0.484375 10.1355H0.384375V10.2355H0.484375V10.1355ZM0.484375 0.160156V0.0601562H0.384375V0.160156H0.484375ZM8.48438 10.1355V10.2355H8.58438V10.1355H8.48438ZM8.48438 0.160156H8.58438V0.0601562H8.48438V0.160156ZM10.4844 18.1158H10.3844V18.2158H10.4844V18.1158ZM10.4844 8.14045V8.04045H10.3844V8.14045H10.4844ZM18.4844 18.1158V18.2158H18.5844V18.1158H18.4844ZM18.4844 8.14045H18.5844V8.04045H18.4844V8.14045ZM6.48438 2.15625H6.58437V2.05625H6.48438V2.15625ZM6.48438 8.14146V8.24146H6.58437V8.14146H6.48438ZM2.48438 2.15625V2.05625H2.38437V2.15625H2.48438ZM2.48438 8.14146H2.38437V8.24146H2.48438V8.14146ZM0.484375 18.1141H0.384375V18.2141H0.484375V18.1141ZM0.484375 12.1289V12.0289H0.384375V12.1289H0.484375ZM8.48438 18.1141V18.2141H8.58438V18.1141H8.48438ZM8.48438 12.1289H8.58438V12.0289H8.48438V12.1289ZM6.48438 16.1201V16.2201H6.58437V16.1201H6.48438ZM2.48438 16.1201H2.38437V16.2201H2.48438V16.1201ZM6.48438 14.125H6.58437V14.025H6.48438V14.125ZM2.48438 14.125V14.025H2.38437V14.125H2.48438ZM12.4844 16.1219H12.3844V16.2219H12.4844V16.1219ZM16.4844 16.1219V16.2219H16.5844V16.1219H16.4844ZM12.4844 10.1367V10.0367H12.3844V10.1367H12.4844ZM16.4844 10.1367H16.5844V10.0367H16.4844V10.1367ZM18.4844 0.160156H18.5844V0.0601562H18.4844V0.160156ZM10.4844 0.160156V0.0601562H10.3844V0.160156H10.4844ZM18.4844 6.14538V6.24538H18.5844V6.14538H18.4844ZM10.4844 6.14538H10.3844V6.24538H10.4844V6.14538ZM12.4844 2.15625V2.05625H12.3844V2.15625H12.4844ZM12.4844 4.15132H12.3844V4.25132H12.4844V4.15132ZM16.4844 2.15625H16.5844V2.05625H16.4844V2.15625ZM16.4844 4.15132V4.25132H16.5844V4.15132H16.4844ZM0.584375 10.1355V0.160156H0.384375V10.1355H0.584375ZM8.48438 10.0355H0.484375V10.2355H8.48438V10.0355ZM8.38438 0.160156V10.1355H8.58438V0.160156H8.38438ZM0.484375 0.260156H8.48438V0.0601562H0.484375V0.260156ZM10.5844 18.1158V8.14045H10.3844V18.1158H10.5844ZM18.4844 18.0158H10.4844V18.2158H18.4844V18.0158ZM18.3844 8.14045V18.1158H18.5844V8.14045H18.3844ZM10.4844 8.24045H18.4844V8.04045H10.4844V8.24045ZM6.38438 2.15625V8.14146H6.58437V2.15625H6.38438ZM2.48438 2.25625H6.48438V2.05625H2.48438V2.25625ZM2.58437 8.14146V2.15625H2.38437V8.14146H2.58437ZM6.48438 8.04146H2.48438V8.24146H6.48438V8.04146ZM0.584375 18.1141V12.1289H0.384375V18.1141H0.584375ZM8.48438 18.0141H0.484375V18.2141H8.48438V18.0141ZM8.38438 12.1289V18.1141H8.58438V12.1289H8.38438ZM0.484375 12.2289H8.48438V12.0289H0.484375V12.2289ZM6.48438 16.0201H2.48438V16.2201H6.48438V16.0201ZM6.38438 14.125V16.1201H6.58437V14.125H6.38438ZM2.48438 14.225H6.48438V14.025H2.48438V14.225ZM2.58437 16.1201V14.125H2.38437V16.1201H2.58437ZM12.4844 16.2219H16.4844V16.0219H12.4844V16.2219ZM12.3844 10.1367V16.1219H12.5844V10.1367H12.3844ZM16.4844 10.0367H12.4844V10.2367H16.4844V10.0367ZM16.5844 16.1219V10.1367H16.3844V16.1219H16.5844ZM18.4844 0.0601562H10.4844V0.260156H18.4844V0.0601562ZM18.5844 6.14538V0.160156H18.3844V6.14538H18.5844ZM10.4844 6.24538H18.4844V6.04538H10.4844V6.24538ZM10.3844 0.160156V6.14538H10.5844V0.160156H10.3844ZM12.3844 2.15625V4.15132H12.5844V2.15625H12.3844ZM16.4844 2.05625H12.4844V2.25625H16.4844V2.05625ZM16.5844 4.15132V2.15625H16.3844V4.15132H16.5844ZM12.4844 4.25132H16.4844V4.05132H12.4844V4.25132Z" fill="white"/>
</svg>
