<svg width="11" height="12" viewBox="0 0 11 12" fill="none" xmlns="http://www.w3.org/2000/svg">
<path d="M9.28755 11.01H1.16099C0.853029 11.01 0.557769 10.8877 0.340046 10.67C0.122323 10.4522 0 10.157 0 9.84901V1.72246C0 1.41457 0.122321 1.11923 0.340046 0.901508C0.557769 0.683785 0.853029 0.561462 1.16099 0.561462H6.38517C6.59257 0.561462 6.78414 0.672091 6.88783 0.851721C6.99153 1.03128 6.99153 1.2526 6.88783 1.43218C6.78413 1.61181 6.59257 1.72244 6.38517 1.72244H1.16099V9.84899H9.28755V4.62482C9.28755 4.41742 9.39818 4.22585 9.57781 4.12216C9.75737 4.01845 9.97869 4.01845 10.1583 4.12216C10.3379 4.22586 10.4485 4.41742 10.4485 4.62482V9.84899C10.4485 10.157 10.3262 10.4522 10.1085 10.6699C9.89075 10.8877 9.59542 11.01 9.28753 11.01L9.28755 11.01Z" fill="#A0A0A0"/>
<path d="M4.06357 7.51731C3.90894 7.51823 3.76038 7.45745 3.65076 7.34836C3.54113 7.23927 3.47958 7.09104 3.47974 6.93639C3.47981 6.78176 3.54167 6.63359 3.65145 6.52474L10.0366 0.139572C10.186 0.0116343 10.3901 -0.0319852 10.5787 0.0238665C10.7675 0.0796415 10.915 0.227193 10.9708 0.415827C11.0266 0.60454 10.983 0.808635 10.855 0.958038L4.46984 7.3432C4.3626 7.45253 4.21668 7.51515 4.06357 7.51731Z" fill="#A0A0A0"/>
</svg>
