<svg width="15" height="16" viewBox="0 0 15 16" fill="none" xmlns="http://www.w3.org/2000/svg">
<path d="M12.6649 15.0137H1.58318C1.16323 15.0137 0.760599 14.8469 0.463702 14.55C0.166805 14.2531 0 13.8505 0 13.4306V2.34881C0 1.92896 0.166802 1.52622 0.463702 1.22933C0.760599 0.93243 1.16323 0.765625 1.58318 0.765625H8.7071C8.98993 0.765625 9.25116 0.916483 9.39256 1.16143C9.53397 1.40629 9.53397 1.7081 9.39256 1.95297C9.25114 2.19793 8.98993 2.34878 8.7071 2.34878H1.58318V13.4305H12.6649V6.3066C12.6649 6.02378 12.8158 5.76255 13.0607 5.62115C13.3056 5.47973 13.6074 5.47973 13.8523 5.62115C14.0972 5.76256 14.2481 6.02378 14.2481 6.3066V13.4305C14.2481 13.8505 14.0813 14.2531 13.7844 14.55C13.4875 14.8469 13.0847 15.0137 12.6649 15.0137L12.6649 15.0137Z" fill="#5B616B"/>
<path d="M5.54078 10.2509C5.32991 10.2522 5.12732 10.1693 4.97784 10.0206C4.82835 9.8718 4.74442 9.66966 4.74463 9.45878C4.74473 9.24792 4.82908 9.04587 4.97878 8.89743L13.6859 0.190327C13.8896 0.015865 14.1679 -0.0436165 14.4252 0.0325455C14.6825 0.108603 14.8837 0.309811 14.9598 0.567041C15.0358 0.824379 14.9764 1.10269 14.8019 1.30642L6.09478 10.0135H6.09488C5.94864 10.1626 5.74954 10.248 5.54075 10.2509L5.54078 10.2509Z" fill="#5B616B"/>
</svg>
