<svg width="70" height="70" viewBox="0 0 70 70" fill="none" xmlns="http://www.w3.org/2000/svg">
<rect x="1.265" y="1.265" width="67.47" height="67.47" rx="33.735" stroke="white" stroke-width="2.53"/>
<path d="M31.5268 21.1952L31.7742 28.0722L31.7742 28.0723C31.7892 28.4936 31.4595 28.8458 31.039 28.8611L31.0255 28.8616L31.0255 28.861C30.6096 28.8393 30.2656 28.5557 30.2517 28.1253L30.2517 28.1256L30.4049 28.1201L30.2517 28.1249L29.9488 19.7057C29.9488 19.7056 29.9488 19.7056 29.9488 19.7055L29.9488 19.7053L30.102 19.6998C30.0931 19.4699 30.2177 19.2524 30.4218 19.1428C30.6256 19.0333 30.8737 19.0485 31.0641 19.1841L31.5268 21.1952ZM31.5268 21.1952L38.3639 26.0572L38.364 26.0572C38.5676 26.2019 38.8321 26.2383 39.0674 26.1508C39.0675 26.1507 39.0677 26.1506 39.0679 26.1506L46.9475 23.2745L44.4379 31.2784L44.4379 31.2786C44.3636 31.5168 44.4109 31.7793 44.5656 31.976L31.5268 21.1952ZM38.9218 24.5823L31.153 19.0592L51.2946 40.0881L51.2936 39.9348L51.2952 40.0881L51.2947 40.0881C51.5846 40.0861 51.8497 39.9183 51.9741 39.6548L51.9742 39.6546C52.0972 39.3933 52.0657 39.085 51.8881 38.8561L51.8877 38.8555L46.0119 31.3521L48.8643 22.2555L48.8645 22.2548C48.95 21.9774 48.8722 21.6767 48.6646 21.4767L48.6636 21.4757C48.4539 21.2774 48.1492 21.2093 47.8749 21.3124C47.8746 21.3125 47.8743 21.3126 47.874 21.3127L38.9218 24.5823Z" fill="white" stroke="white" stroke-width="0.306667"/>
<path d="M42.7171 28.5041L42.717 28.5045L39.8646 37.6012L45.7418 45.1081L45.7423 45.1087C45.9198 45.3376 45.9514 45.6459 45.8284 45.9072L45.8283 45.9073C45.704 46.1707 45.439 46.3385 45.1493 46.3407L45.1487 46.3407M42.7171 28.5041L45.1477 46.1873L45.1487 46.3407M42.7171 28.5041C42.8028 28.2281 42.7249 27.9258 42.5173 27.7258L42.7171 28.5041ZM45.1487 46.3407L35.6173 46.4387M45.1487 46.3407L35.6173 46.4387M35.6173 46.4387L30.2947 54.3466L30.2945 54.3469C30.1519 54.5579 29.914 54.6837 29.6623 54.6837C29.6278 54.6837 29.5934 54.6798 29.5681 54.677L29.5646 54.6766L29.5613 54.6762L29.5613 54.6762C29.2739 54.638 29.0317 54.44 28.9399 54.1632C28.9399 54.1631 28.9399 54.1631 28.9399 54.163L25.9008 45.1284L16.7343 42.5116L16.7342 42.5116C16.454 42.4314 16.2466 42.2006 16.1936 41.9158L16.3443 41.8877L16.1936 41.9158C16.1402 41.6296 16.2548 41.3396 16.489 41.1662L24.1432 35.4829L23.8007 25.9567C23.8007 25.9566 23.8007 25.9565 23.8007 25.9564L23.8007 25.9561L23.9539 25.9506C23.9447 25.7193 24.0696 25.5032 24.2736 25.3937L35.6173 46.4387ZM18.6364 41.4675L25.3724 36.4661L25.3726 36.4659C25.574 36.3158 25.6885 36.0778 25.6808 35.8285L25.6808 35.8277L25.3781 27.4441L32.2145 32.3055C32.2146 32.3056 32.2148 32.3057 32.2149 32.3058C32.4203 32.4534 32.6847 32.4845 32.9171 32.4017L32.9182 32.4013L40.7988 29.5233L38.2895 37.5291L38.2894 37.5293C38.2152 37.7674 38.2624 38.0298 38.417 38.2265C38.4171 38.2266 38.4172 38.2267 38.4172 38.2268L43.5885 44.8315L35.2005 44.9177C35.2005 44.9177 35.2004 44.9177 35.2004 44.9177L35.2001 44.9177L35.2017 45.071M18.6364 41.4675L34.5754 45.2547L34.7026 45.3403M18.6364 41.4675L26.7032 43.7714L26.704 43.7717C26.9453 43.842 27.1361 44.0248 27.216 44.2645M18.6364 41.4675L29.7832 52.3754L29.891 52.2152M35.2017 45.071C35.0009 45.0725 34.8152 45.1729 34.7026 45.3403M35.2017 45.071L43.7076 44.9837L35.2017 45.071ZM34.7026 45.3403L34.5754 45.2547L29.891 52.2152M34.7026 45.3403L29.9526 52.3983L29.891 52.2152M29.891 52.2152L27.216 44.2645M27.216 44.2645L27.0705 44.313L27.2158 44.2641L27.216 44.2645ZM25.003 25.3082C24.7675 25.1408 24.4566 25.1195 24.2007 25.2588L42.4109 27.8362C42.2435 27.675 42 27.6248 41.7808 27.7053L41.7282 27.5613L41.7282 27.5613C41.7281 27.5613 41.728 27.5613 41.728 27.5614L32.7732 30.8314L25.003 25.3082Z" fill="white" stroke="white" stroke-width="0.306667"/>
<path d="M22.2375 23.1518L22.2373 23.1514L20.175 19.6615L20.1748 19.6611L20.1748 19.6611C19.962 19.2982 20.0811 18.8317 20.4433 18.6178C20.8067 18.4005 21.2734 18.5255 21.4862 18.8864L21.4862 18.8863L21.3542 18.9644L21.4863 18.8866L22.2375 23.1518ZM22.2375 23.1518C22.3804 23.392 22.6338 23.5251 22.8944 23.5251C23.0263 23.5251 23.1598 23.4905 23.2815 23.4184L22.2375 23.1518Z" fill="white" stroke="white" stroke-width="0.306667"/>
<path d="M26.3761 19.3538L26.3766 19.3537L25.5338 23.0758L25.6833 23.1099L25.5337 23.0761L25.5338 23.076C25.4404 23.4855 25.6975 23.8949 26.1084 23.9883C26.1665 24.0019 26.2237 24.0075 26.2784 24.0075C26.6269 24.0075 26.9415 23.7676 27.0216 23.4131C27.0216 23.4131 27.0216 23.4131 27.0216 23.4131L27.9209 19.4414C27.9209 19.4414 27.9209 19.4414 27.9209 19.4414C28.0144 19.0316 27.757 18.622 27.3457 18.5288L27.3457 18.5288L27.3446 18.5286C26.9363 18.4393 26.5268 18.6931 26.4331 19.1039L26.3761 19.3538Z" fill="white" stroke="white" stroke-width="0.306667"/>
<path d="M17.0068 23.6702C16.8631 24.053 17.0472 24.4765 17.4174 24.6371L17.419 24.6388L17.4529 24.6515L21.2658 26.0802C21.3546 26.1146 21.4464 26.1298 21.5337 26.1298C21.8422 26.1298 22.1317 25.9415 22.2477 25.6369L22.2479 25.6364C22.3965 25.2422 22.1967 24.8019 21.8019 24.655C21.8018 24.6549 21.8017 24.6549 21.8017 24.6549L17.9891 23.2247C17.9889 23.2247 17.9888 23.2246 17.9887 23.2246C17.5935 23.074 17.1535 23.2764 17.0068 23.6702Z" fill="white" stroke="white" stroke-width="0.306667"/>
<path d="M51.5349 20.8294C51.4183 20.8943 51.2906 20.925 51.1666 20.925C50.9279 20.925 50.6962 20.8132 50.55 20.6113H50.544L50.5026 20.5374L51.5349 20.8294ZM51.5349 20.8294L51.5347 20.8295L51.4604 20.6955L51.5349 20.8294ZM53.1403 19.9394C53.5077 19.7358 53.6415 19.2713 53.4377 18.9047M53.1403 19.9394L50.5004 20.5334L50.5001 20.5328C50.2943 20.1649 50.4275 19.6998 50.7974 19.4972L52.4022 18.6074M53.1403 19.9394L53.066 19.8053L53.1403 19.9394L53.1403 19.9394ZM53.4377 18.9047C53.2342 18.5356 52.7692 18.4014 52.4022 18.6074M53.4377 18.9047L53.3034 18.9788L53.4374 18.9041C53.4375 18.9043 53.4376 18.9045 53.4377 18.9047ZM52.4022 18.6074L52.4026 18.6072L52.4769 18.7413L52.4018 18.6077C52.4019 18.6076 52.4021 18.6075 52.4022 18.6074Z" fill="white" stroke="white" stroke-width="0.306667"/>
<path d="M52.9107 22.4738L52.911 22.4738C53.3306 22.4929 53.6559 22.849 53.6386 23.2679L53.6386 23.268C53.6217 23.6764 53.2839 23.9964 52.8783 23.9964H52.8508H52.8441L52.8441 23.9962L51.1324 23.9216C51.1324 23.9216 51.1323 23.9216 51.1322 23.9216L51.132 23.9216L51.1387 23.7684C50.8024 23.7546 50.542 23.47 50.5573 23.1337L52.9107 22.4738ZM52.9107 22.4738L51.2004 22.3992L52.9107 22.4738Z" fill="white" stroke="white" stroke-width="0.306667"/>
<path d="M47.3336 18.3659C47.1963 18.7642 47.4097 19.1981 47.8055 19.3352C47.8901 19.3648 47.9746 19.3756 48.0538 19.3756C48.3701 19.3756 48.6653 19.1777 48.7741 18.8612C48.7741 18.8612 48.7741 18.8612 48.7741 18.8612L49.3507 17.1846C49.3508 17.1845 49.3508 17.1844 49.3508 17.1843C49.4897 16.7856 49.2755 16.3534 48.8801 16.2165L48.8801 16.2165L48.8794 16.2162C48.4782 16.0793 48.0476 16.2926 47.9105 16.6885L47.9104 16.6888L47.3336 18.3659ZM47.3336 18.3659L47.4785 18.4159M47.3336 18.3659L47.3335 18.366L47.4785 18.4159M47.4785 18.4159L48.0554 16.7387M47.4785 18.4159C47.369 18.7339 47.5394 19.0808 47.8559 19.1904C47.9214 19.2134 47.9884 19.2223 48.0538 19.2223C48.3066 19.2223 48.5422 19.064 48.6291 18.8113L48.0554 16.7387M48.0554 16.7387C48.1649 16.4222 48.5089 16.2518 48.8299 16.3614L48.0554 16.7387Z" fill="white" stroke="white" stroke-width="0.306667"/>
</svg>
