<?xml version="1.0" encoding="UTF-8"?><svg id="a" xmlns="http://www.w3.org/2000/svg" xmlns:xlink="http://www.w3.org/1999/xlink" viewBox="0 0 4384.41 1080"><defs><style>.g{fill:url(#e);}.h{fill:url(#d);}.i{fill:url(#f);}.j{fill:url(#c);}.k{fill:url(#b);}.l{fill:#f57a2b;}.m{fill:#fff;}.n{fill:#ffd262;}.o{fill:#f2427c;}.p{fill:#7460e8;}.q{fill:#4cbdce;}</style><linearGradient id="b" x1="663.43" y1="215.07" x2="903.03" y2="556.56" gradientTransform="matrix(1, 0, 0, 1, 0, 0)" gradientUnits="userSpaceOnUse"><stop offset="0" stop-color="#77007d"/><stop offset=".2" stop-color="#ee007e"/><stop offset=".5" stop-color="#f2427c"/><stop offset="1" stop-color="#ff7085"/></linearGradient><linearGradient id="c" x1="911" y1="471.1" x2="711.34" y2="787.81" gradientTransform="matrix(1, 0, 0, 1, 0, 0)" gradientUnits="userSpaceOnUse"><stop offset="0" stop-color="#2b1272"/><stop offset=".17" stop-color="#442d9a"/><stop offset=".5" stop-color="#7460e8"/><stop offset="1" stop-color="#6248c9"/></linearGradient><linearGradient id="d" x1="428.39" y1="357.41" x2="735.74" y2="182.92" gradientTransform="matrix(1, 0, 0, 1, 0, 0)" gradientUnits="userSpaceOnUse"><stop offset="0" stop-color="#73002b"/><stop offset=".2" stop-color="#f5062b"/><stop offset=".5" stop-color="#f57a2b"/><stop offset="1" stop-color="#f5c72b"/></linearGradient><linearGradient id="e" x1="753.85" y1="692.07" x2="425.55" y2="861.35" gradientTransform="matrix(1, 0, 0, 1, 0, 0)" gradientUnits="userSpaceOnUse"><stop offset="0" stop-color="#c36163"/><stop offset=".22" stop-color="#f86a66"/><stop offset=".5" stop-color="#ffd262"/><stop offset="1" stop-color="#ffec6b"/></linearGradient><linearGradient id="f" x1="530.97" y1="761.38" x2="177.02" y2="563.88" gradientTransform="matrix(1, 0, 0, 1, 0, 0)" gradientUnits="userSpaceOnUse"><stop offset="0" stop-color="#0064cd"/><stop offset=".2" stop-color="#4d54cd"/><stop offset=".5" stop-color="#4cbdce"/><stop offset="1" stop-color="#8cb1cd"/></linearGradient></defs><path class="m" d="M2177.52,554.7c-14.48-11.51-16.15-32.66-4.19-46.77,3.89-4.58,7.36-9.56,10.42-14.92,10.49-18.36,15.74-37.84,15.74-58.43,0-18.16-3.94-35.62-11.81-52.37-7.87-16.74-19.18-30.47-33.91-41.17-14.74-10.69-32.19-16.04-52.37-16.04h-197.38c-18.06,0-32.69,14.64-32.69,32.69v105.35c0,23.07,18.7,41.78,41.78,41.78h0c23.07,0,41.78-18.7,41.78-41.78v-33.91c0-18.06,14.64-32.69,32.69-32.69h82.35c8.87,0,16.85,2.33,23.92,6.96,7.06,4.65,12.71,10.9,16.95,18.77,4.24,7.87,6.36,17.46,6.36,28.76s-2.33,20.39-6.96,28.46c-4.65,8.08-10.8,14.33-18.47,18.77-7.67,4.45-16.15,6.66-25.43,6.66h-34.71c-18.06,0-32.69,14.64-32.69,32.69h0c0,18.06,14.64,32.69,32.69,32.69h51.67c9.69,0,18.26,2.63,25.73,7.87,7.46,5.25,13.41,12.21,17.86,20.89,4.44,8.69,6.66,18.47,6.66,29.37,0,10.09-2.42,19.37-7.27,27.85-4.84,8.48-11.41,15.24-19.68,20.29-8.28,5.05-17.47,7.57-27.55,7.57h-44.7c-19.56,0-35.42,15.86-35.42,35.42h0c0,19.56,15.86,35.42,35.42,35.42h44.7c25.02,0,48.13-4.24,69.32-12.71,21.19-8.48,38.04-20.89,50.56-37.24,12.51-16.35,18.77-36.42,18.77-60.24,0-28.25-7.17-51.86-21.49-70.84-5.47-7.23-11.68-13.62-18.64-19.15Z"/><path class="m" d="M2978.67,637.64l-.9-.53c-16.44-9.69-37.29-5.99-49.84,8.38-3.41,3.9-7.06,7.47-10.96,10.7-11.71,9.69-24.43,16.76-38.15,21.19-13.72,4.45-27.05,6.66-39.96,6.66-18.57,0-35.63-3.94-51.16-11.81-15.54-7.87-28.86-18.56-39.96-32.09-11.11-13.52-19.68-29.06-25.73-46.62-6.05-17.56-9.08-35.62-9.08-54.19,0-17.35,2.62-34.51,7.87-51.47,5.24-16.95,13.02-32.29,23.31-46.02,10.29-13.72,23.21-24.82,38.75-33.3,.7-.38,1.41-.76,2.13-1.12,12.49-6.38,20.53-19.02,20.53-33.05v-.38c0-27.34-28.31-45.58-53.15-34.16-.43,.2-.86,.4-1.29,.6-26.24,12.32-48.54,28.76-66.9,49.35-18.37,20.59-32.3,43.5-41.78,68.72-9.49,25.23-14.23,51.16-14.23,77.8s5.15,53.79,15.44,80.23c10.29,26.44,24.72,50.25,43.29,71.45,18.56,21.19,40.46,38.14,65.69,50.86,25.22,12.71,53.18,19.07,83.86,19.07,23.4,0,46.92-3.83,70.54-11.5,23.62-7.66,45-18.97,64.18-33.91,5.85-4.56,11.22-9.41,16.11-14.57,17.2-18.13,12.94-47.59-8.6-60.28Z"/><path class="m" d="M3583.98,487.57l-74.19-141.6c-6.75-12.89-20.1-20.96-34.65-20.96h0c-29.84,0-48.7,32.07-34.18,58.15l117.7,211.5c3.24,5.82,4.94,12.37,4.94,19.02v102.09c0,21.61,17.52,39.12,39.12,39.12h4.71c21.61,0,39.12-17.52,39.12-39.12v-98.22c0-6.28-1.51-12.46-4.41-18.04l-58.15-111.94Z"/><path class="m" d="M1745.69,325h0c-22.91,0-41.47,18.57-41.47,41.47v177.7c0,17.36-1.82,34.42-5.45,51.16-3.63,16.75-9.49,31.79-17.56,45.11-8.08,13.32-18.67,23.91-31.79,31.78-1.96,1.18-4,2.26-6.13,3.26-13.48,6.33-22.12,19.83-22.12,34.72h0c0,26.57,26.38,45.19,51.36,36.12,4.24-1.54,8.35-3.23,12.32-5.09,23.81-11.1,43.19-26.43,58.13-46.01,14.93-19.58,26.03-42.38,33.3-68.42,7.27-26.03,10.9-53.58,10.9-82.65v-177.7c0-22.91-18.57-41.47-41.47-41.47Z"/><path class="m" d="M1555.21,675.63c-2.07-.95-4.06-1.98-5.99-3.09-13.32-7.67-23.92-18.16-31.79-31.49-7.87-13.32-13.73-28.35-17.56-45.11-3.84-16.74-5.75-34-5.75-51.77v-177.7c0-22.91-18.57-41.47-41.47-41.47h0c-22.91,0-41.47,18.57-41.47,41.47v177.7c0,27.85,3.43,54.6,10.29,80.23,6.86,25.64,17.65,48.54,32.39,68.72,14.73,20.19,34.11,36.03,58.13,47.53,4.68,2.24,9.54,4.26,14.6,6.06,24.69,8.79,50.59-9.87,50.59-36.07v-.36c0-14.83-8.48-28.47-21.96-34.66Z"/><path class="m" d="M4176.29,573.85c-5.46-7.23-11.68-13.62-18.64-19.15-14.48-11.51-16.15-32.66-4.19-46.77,3.89-4.58,7.36-9.56,10.42-14.91,10.49-18.36,15.74-37.84,15.74-58.43,0-18.16-3.94-35.62-11.81-52.37-7.87-16.74-19.18-30.47-33.91-41.17-14.74-10.69-32.19-16.04-52.37-16.04h-197.38c-18.06,0-32.69,14.64-32.69,32.69v105.35c0,23.07,18.7,41.78,41.78,41.78h0c23.07,0,41.78-18.7,41.78-41.78v-33.91c0-18.06,14.64-32.69,32.69-32.69h82.35c8.87,0,16.85,2.33,23.92,6.96,7.06,4.65,12.71,10.9,16.95,18.77,4.24,7.87,6.36,17.46,6.36,28.76s-2.33,20.39-6.96,28.46c-4.65,8.08-10.8,14.33-18.47,18.77-7.67,4.45-16.15,6.66-25.43,6.66h-34.71c-18.06,0-32.69,14.64-32.69,32.69h0c0,18.06,14.64,32.69,32.69,32.69h51.67c9.69,0,18.26,2.63,25.73,7.87,7.46,5.25,13.41,12.21,17.86,20.89,4.44,8.69,6.66,18.47,6.66,29.37,0,10.09-2.42,19.37-7.27,27.85-4.84,8.48-11.41,15.24-19.68,20.29-8.28,5.05-17.47,7.57-27.55,7.57h-47.43c-18.06,0-32.69,14.64-32.69,32.69v5.45c0,18.06,14.64,32.69,32.69,32.69h47.43c25.02,0,48.13-4.24,69.32-12.71,21.19-8.48,38.04-20.89,50.56-37.24,12.51-16.35,18.77-36.42,18.77-60.24,0-28.25-7.17-51.86-21.49-70.84Z"/><path class="m" d="M3336.72,617.86c-7.13-11.75-3.63-26.82,7.63-34.71,7.23-5.07,13.92-10.94,20.06-17.6,11.79-12.81,20.84-27.55,27.15-44.22,6.3-16.67,9.46-34.16,9.46-52.46s-3.35-35.38-10.07-52.46c-6.71-17.08-16.27-32.53-28.67-46.36-12.41-13.82-27.05-24.8-43.92-32.94-16.88-8.13-35.07-12.2-54.6-12.2h-163.81c-15.65,0-28.34,12.69-28.34,28.34v145.2c0,24.41,20.33,44.4,44.69,42.94,22.07-1.33,39.56-19.64,39.56-42.05v-68.18c0-.77-.02-1.53-.06-2.29v-1.81c0-15.65,12.69-28.34,28.34-28.34h74.14c10.16,0,19.52,3.05,28.06,9.15,8.54,6.1,15.65,14.44,21.35,25.01,5.69,10.58,8.54,22.57,8.54,35.99s-2.44,24.81-7.32,35.38c-4.88,10.58-11.39,19.01-19.52,25.31-8.14,6.31-17.49,9.46-28.06,9.46h-23.81c-20.83,0-37.72,16.89-37.72,37.72h0c0,17.01,13.7,33.44,30.43,36.51,7.12,1.31,13.44,5.58,17.3,11.87l73.26,119.43c5.13,8.36,14.23,13.46,24.04,13.46h31.17c20.08,0,32.44-21.96,22.03-39.13l-61.29-101.02Z"/><path class="m" d="M2526.93,526.5c-20.79-9.84-45.31-18.17-73.56-25-21.8-5.62-39.96-10.83-54.49-15.66-14.53-4.83-25.43-10.64-32.69-17.47-7.27-6.83-10.9-16.06-10.9-27.72,0-15.66,5.75-27.61,17.25-35.83,1.56-1.12,3.23-2.16,5.01-3.12,11.84-6.43,19.26-18.79,19.26-32.27v-2.08c0-25.52-26.06-43-49.53-32.97-.16,.07-.31,.13-.47,.2-23.82,10.26-42.79,25.33-56.91,45.22-14.13,19.9-21.19,44.51-21.19,73.86,0,21.71,4.54,39.71,13.62,53.97,9.08,14.27,22.6,26.22,40.57,35.87,17.96,9.65,40.66,18.29,68.11,25.92,22.6,6.04,42.17,11.76,58.73,17.18,16.55,5.43,29.37,11.86,38.45,19.3,9.08,7.44,13.62,17.59,13.62,30.44,0,14.37-5.66,25.25-16.95,32.63-11.3,7.39-28.46,11.08-51.46,11.08-16.15,0-32.09-2.01-47.83-6.05-15.74-4.03-30.27-8.98-43.59-14.83-13.32-5.85-24.62-11.71-33.91-17.56h0c-10.83-6.83-25.18-2.9-31.02,8.5h0c-15.13,29.52-2.17,65.78,28.34,78.8,.39,.17,.78,.33,1.17,.5,19.57,8.28,40.06,14.64,61.46,19.07,21.39,4.44,42.78,6.66,64.18,6.66s41.67-2.32,60.85-6.93c19.17-4.62,36.12-12.05,50.86-22.29,14.73-10.24,26.34-23.4,34.81-39.46,8.48-16.06,12.71-35.35,12.71-57.84,0-26.51-5.55-47.69-16.65-63.55-11.11-15.87-27.05-28.72-47.83-38.56Z"/><path class="m" d="M1289.78,526.5c-20.79-9.84-45.31-18.17-73.56-25-21.8-5.62-39.96-10.83-54.49-15.66-14.53-4.83-25.43-10.64-32.69-17.47-7.27-6.83-10.9-16.06-10.9-27.72,0-15.66,5.75-27.61,17.25-35.83,1.56-1.12,3.23-2.16,5.01-3.12,11.84-6.43,19.26-18.79,19.26-32.27v-2.08c0-25.52-26.06-43-49.53-32.97-.16,.07-.31,.13-.47,.2-23.82,10.26-42.79,25.33-56.91,45.22-14.13,19.9-21.19,44.51-21.19,73.86,0,21.71,4.54,39.71,13.62,53.97,9.08,14.27,22.6,26.22,40.57,35.87,17.96,9.65,40.66,18.29,68.11,25.92,22.6,6.04,42.17,11.76,58.73,17.18,16.55,5.43,29.37,11.86,38.45,19.3,9.08,7.44,13.62,17.59,13.62,30.44,0,14.37-5.66,25.25-16.95,32.63-11.3,7.39-28.46,11.08-51.46,11.08-16.15,0-32.09-2.01-47.83-6.05-15.74-4.03-30.27-8.98-43.59-14.83-13.32-5.85-24.62-11.71-33.91-17.56h0c-10.83-6.83-25.18-2.9-31.02,8.5h0c-15.13,29.52-2.17,65.78,28.34,78.8,.39,.17,.78,.33,1.17,.5,19.57,8.28,40.06,14.64,61.46,19.07,21.39,4.44,42.78,6.66,64.18,6.66s41.67-2.32,60.85-6.93c19.17-4.62,36.12-12.05,50.86-22.29,14.73-10.24,26.34-23.4,34.81-39.46,8.48-16.06,12.71-35.35,12.71-57.84,0-26.51-5.55-47.69-16.65-63.55-11.11-15.87-27.05-28.72-47.83-38.56Z"/><path class="o" d="M1913.11,570.71h0c-23.07,0-41.78,18.7-41.78,41.78v100.62c0,23.07,18.7,41.78,41.78,41.78h0c23.07,0,41.78-18.7,41.78-41.78v-100.62c0-23.07-18.7-41.78-41.78-41.78Z"/><path class="q" d="M2876.42,401.82c.09,.03,.19,.06,.28,.08,13.52,4.04,26.13,10.7,37.84,19.98,3.97,3.15,7.69,6.7,11.15,10.65,12.34,14.05,33.4,16.31,48.75,5.64l2.34-1.63c18.33-12.74,21.34-38.65,6.49-55.32-11.26-12.64-24.79-23.71-40.57-33.21-14.31-8.6-29.96-15.05-46.91-19.36-23.46-5.97-46.28,11.83-46.28,36.04v1.72c0,16.51,11.09,30.73,26.92,35.41Z"/><path class="l" d="M3738.26,325h-3c-13.98,0-26.83,7.71-33.41,20.05l-62.7,117.65c-5.86,11-5.93,24.19-.19,35.25h0c13.89,26.74,51.95,27.32,66.64,1l65.7-117.65c14.09-25.23-4.15-56.31-33.05-56.31Z"/><path class="o" d="M3893.24,570.71c-23.07,0-41.78,18.7-41.78,41.78v100.62c0,23.07,18.7,41.78,41.78,41.78s41.78-18.7,41.78-41.78v-100.62c0-23.07-18.7-41.78-41.78-41.78Z"/><path class="p" d="M3113.73,606.77c-23.26,0-42.12,18.86-42.12,42.12v66.9c0,23.26,18.86,42.12,42.12,42.12s42.12-18.86,42.12-42.12v-66.9c0-23.26-18.86-42.12-42.12-42.12Z"/><path class="n" d="M2461.85,397.29h0c12.51,3.23,24.11,7.27,34.81,12.11,10.69,4.84,19.77,9.59,27.25,14.23,.07,.05,.15,.09,.22,.14,8.59,5.36,19.9,2.47,24.74-6.42l6.04-11.08c12.47-22.9,3.12-51.68-20.54-62.64-.16-.07-.31-.15-.47-.22-15.74-7.27-32.6-13.11-50.56-17.56-.14-.03-.27-.07-.41-.1-21.46-5.26-42.13,11.18-42.13,33.27v11.13c0,12.79,8.66,23.96,21.05,27.14Z"/><path class="l" d="M1224.69,397.29h0c12.51,3.23,24.11,7.27,34.81,12.11,10.69,4.84,19.77,9.59,27.25,14.23,.07,.05,.15,.09,.22,.14,8.59,5.36,19.9,2.47,24.74-6.42l6.04-11.08c12.47-22.9,3.12-51.68-20.54-62.64-.16-.07-.31-.15-.47-.22-15.74-7.27-32.6-13.11-50.56-17.56-.14-.03-.27-.07-.41-.1-21.46-5.26-42.13,11.18-42.13,33.27v11.13c0,12.79,8.66,23.96,21.05,27.14Z"/><path class="k" d="M882.44,516.91h-72.93c-9.62,0-18.54-5.05-23.49-13.3l-81.78-136.28c-5.21-8.68-5.21-19.51,0-28.19l36.47-60.78c10.64-17.73,36.34-17.73,46.98,0l118.24,197.06c10.96,18.26-2.2,41.49-23.49,41.49Z"/><path class="j" d="M905.94,583.56l-118.26,197.1c-10.64,17.73-36.32,17.72-46.96,0l-36.48-60.81c-5.2-8.67-5.2-19.5,0-28.18l81.79-136.3c4.95-8.25,13.86-13.29,23.48-13.29h72.96c21.28,0,34.43,23.22,23.48,41.47Z"/><path class="h" d="M717.12,268.75l-35.18,58.62c-4.94,8.24-13.84,13.28-23.45,13.28h-166.3c-9.6,0-18.51-5.04-23.45-13.28l-35.18-58.62c-10.94-18.23,2.19-41.41,23.45-41.41h236.66c21.26,0,34.38,23.19,23.45,41.41Z"/><path class="g" d="M693.67,831.68h-236.66c-21.25,0-34.38-23.19-23.45-41.41l35.18-58.63c4.94-8.24,13.84-13.27,23.45-13.27h166.31c9.6,0,18.5,5.04,23.45,13.27l35.18,58.63c10.94,18.23-2.19,41.41-23.45,41.41Z"/><path class="m" d="M446.34,367.5l-81.58,135.95c-5.01,8.35-14.04,13.46-23.78,13.46h-72.15c-21.55,0-34.87-23.51-23.78-42l117.65-196.08c10.77-17.95,36.78-17.95,47.55,0l36.08,60.13c5.27,8.78,5.27,19.75,0,28.53Z"/><path class="i" d="M446.51,719.75l-36.74,61.24c-10.55,17.58-36.03,17.58-46.58,0l-118.66-197.75c-10.86-18.1,2.18-41.13,23.29-41.13h73.48c9.54,0,18.38,5.01,23.29,13.19l81.92,136.52c5.16,8.6,5.16,19.35,0,27.95Z"/></svg>