<svg width="10" height="16" viewBox="0 0 10 16" fill="none" xmlns="http://www.w3.org/2000/svg">
<path d="M8.88275 1.05449L8.88274 1.05451C8.97502 1.0666 9.05974 1.11186 9.1211 1.18182C9.18246 1.25178 9.21627 1.34168 9.21623 1.43473C9.21623 1.43474 9.21623 1.43475 9.21623 1.43475V3.73127C9.21623 3.83293 9.17584 3.93043 9.10396 4.00232C9.03207 4.0742 8.93457 4.11459 8.83291 4.11459H7.47365C7.07128 4.11459 6.85647 4.18262 6.73827 4.31387C6.61888 4.44644 6.58504 4.65687 6.58504 4.98121V6.23714H8.74356C8.74357 6.23714 8.74358 6.23714 8.74359 6.23714C8.79814 6.23711 8.85207 6.24873 8.90177 6.27122C8.95148 6.29372 8.99581 6.32656 9.03181 6.36757C9.06781 6.40857 9.09463 6.45679 9.1105 6.50899C9.12637 6.56119 9.1309 6.61618 9.12381 6.67028M8.88275 1.05449L9.07423 6.66378M8.88275 1.05449L8.88152 1.05436C8.20727 0.982834 7.52964 0.948025 6.85161 0.950086M8.88275 1.05449L3.16655 6.23714M9.12381 6.67028L9.07423 6.66378M9.12381 6.67028L9.12382 6.67018L9.07423 6.66378M9.12381 6.67028L8.79251 9.23671L8.79249 9.23681C8.7804 9.32908 8.73514 9.4138 8.66517 9.47516C8.59521 9.53652 8.50532 9.57033 8.41227 9.57029V9.52029M9.07423 6.66378L8.74292 9.23031C8.7324 9.31055 8.69305 9.38422 8.63221 9.43757C8.57137 9.49093 8.49319 9.52033 8.41227 9.52029M8.41227 9.52029H6.58504H8.41227ZM3.16655 6.23714V4.72655C3.16655 3.56716 3.5181 2.62199 4.15762 1.96645C4.79726 1.31078 5.71987 0.950103 6.85161 0.950086M3.16655 6.23714H1.33332C1.23165 6.23714 1.13416 6.27752 1.06227 6.34941C0.990385 6.42129 0.95 6.51879 0.95 6.62045V9.18698C0.95 9.28864 0.990385 9.38614 1.06227 9.45802C1.13416 9.52991 1.23165 9.57029 1.33332 9.57029H3.16655V14.6667C3.16655 14.7683 3.20693 14.8658 3.27882 14.9377C3.3507 15.0096 3.4482 15.05 3.54986 15.05H6.20172C6.30338 15.05 6.40088 15.0096 6.47277 14.9377C6.54465 14.8658 6.58504 14.7683 6.58504 14.6667V9.57029H8.41225L3.16655 6.23714ZM6.85161 0.950086C6.85163 0.950086 6.85166 0.950086 6.85169 0.950086V1.00009L6.85153 0.950087C6.85156 0.950087 6.85158 0.950087 6.85161 0.950086ZM6.20105 7.00443H6.20095C6.09943 7.00423 6.00212 6.96376 5.9304 6.89189C5.85869 6.82003 5.81841 6.72265 5.81841 6.62112V4.98121C5.81841 4.63935 5.85986 4.23006 6.09075 3.90584C6.32411 3.57814 6.74288 3.34796 7.47295 3.34796L6.20105 7.00443ZM6.20105 7.00443H8.30805L8.07501 8.80433H6.20172C6.10006 8.80433 6.00256 8.84472 5.93068 8.9166C5.85879 8.98849 5.81841 9.08598 5.81841 9.18765V14.2827H3.93318V9.18765C3.93318 9.08598 3.89279 8.98849 3.82091 8.9166C3.74902 8.84472 3.65152 8.80433 3.54986 8.80433H1.7173V7.00443H3.54986C3.65152 7.00443 3.74902 6.96405 3.82091 6.89216C3.89279 6.82028 3.93318 6.72278 3.93318 6.62112V4.72655C3.93318 3.77815 4.20775 3.02692 4.70636 2.51299C5.20477 1.99926 5.9328 1.71672 6.85169 1.71672C7.49552 1.71672 8.07938 1.7504 8.4496 1.7813V3.34732L7.47299 3.34796L6.20105 7.00443ZM6.58504 6.28714H6.53504V6.23714L6.58504 6.28714Z" fill="#A0A0A0" stroke="#A0A0A0" stroke-width="0.1"/>
</svg>
