<svg width="18" height="18" viewBox="0 0 18 18" fill="none" xmlns="http://www.w3.org/2000/svg">
<path d="M7.37633 8.17991H1.94775C1.463 8.17991 1.06836 7.78567 1.06836 7.30142V1.87848C1.06836 1.39424 1.463 1 1.94775 1H7.37633C7.86108 1 8.25572 1.39424 8.25572 1.87848V7.30142C8.25572 7.78567 7.86143 8.17991 7.37633 8.17991ZM1.94775 1.74274C1.87286 1.74274 1.81196 1.80358 1.81196 1.8784V7.30134C1.81196 7.37615 1.87286 7.437 1.94775 7.437H7.37633C7.45122 7.437 7.51213 7.37615 7.51213 7.30134V1.8784C7.51213 1.80358 7.45122 1.74274 7.37633 1.74274H1.94775Z" fill="#A0A0A0" stroke="#A0A0A0" stroke-width="0.3"/>
<path d="M16.189 8.19553H10.7604C10.2756 8.19553 9.88098 7.8013 9.88098 7.31705V1.89411C9.88098 1.40986 10.2756 1.01562 10.7604 1.01562H16.189C16.6737 1.01562 17.0683 1.40986 17.0683 1.89411V7.31705C17.0683 7.8013 16.6737 8.19553 16.189 8.19553ZM10.7604 1.75836C10.6855 1.75836 10.6246 1.81921 10.6246 1.89402V7.31696C10.6246 7.39178 10.6855 7.45262 10.7604 7.45262H16.189C16.2638 7.45262 16.3247 7.39178 16.3247 7.31696V1.89402C16.3247 1.81921 16.2638 1.75836 16.189 1.75836H10.7604Z" fill="#A0A0A0" stroke="#A0A0A0" stroke-width="0.3"/>
<path d="M7.37633 16.9822H1.94775C1.463 16.9822 1.06836 16.5879 1.06836 16.1037V10.6807C1.06836 10.1965 1.463 9.80225 1.94775 9.80225H7.37633C7.86108 9.80225 8.25572 10.1965 8.25572 10.6807V16.1037C8.25572 16.5881 7.86143 16.9822 7.37633 16.9822ZM1.94775 10.545C1.87286 10.545 1.81196 10.6058 1.81196 10.6806V16.1036C1.81196 16.1784 1.87286 16.2392 1.94775 16.2392H7.37633C7.45122 16.2392 7.51213 16.1784 7.51213 16.1036V10.6806C7.51213 10.6058 7.45122 10.545 7.37633 10.545H1.94775Z" fill="#A0A0A0" stroke="#A0A0A0" stroke-width="0.3"/>
<path d="M16.1888 16.9997H10.7603C10.2755 16.9997 9.88086 16.6055 9.88086 16.1212V10.6983C9.88086 10.2141 10.2755 9.81982 10.7603 9.81982H16.1888C16.6736 9.81982 17.0682 10.2141 17.0682 10.6983V16.1212C17.0682 16.6055 16.6736 16.9997 16.1888 16.9997ZM10.7603 10.5626C10.6854 10.5626 10.6245 10.6234 10.6245 10.6982V16.1212C10.6245 16.196 10.6854 16.2568 10.7603 16.2568H16.1888C16.2637 16.2568 16.3246 16.196 16.3246 16.1212V10.6982C16.3246 10.6234 16.2637 10.5626 16.1888 10.5626H10.7603Z" fill="#A0A0A0" stroke="#A0A0A0" stroke-width="0.3"/>
</svg>
