<svg width="320" height="512" viewBox="0 0 320 512" fill="none" xmlns="http://www.w3.org/2000/svg">
<path d="M40 352C17.9 352 0 369.9 0 392V440C0 462.1 17.9 480 40 480H88C110.1 480 128 462.1 128 440V392C128 369.9 110.1 352 88 352H40ZM232 352C209.9 352 192 369.9 192 392V440C192 462.1 209.9 480 232 480H280C302.1 480 320 462.1 320 440V392C320 369.9 302.1 352 280 352H232ZM40 320H88C110.1 320 128 302.1 128 280V232C128 209.9 110.1 192 88 192H40C17.9 192 0 209.9 0 232V280C0 302.1 17.9 320 40 320ZM232 192C209.9 192 192 209.9 192 232V280C192 302.1 209.9 320 232 320H280C302.1 320 320 302.1 320 280V232C320 209.9 302.1 192 280 192H232ZM40 160H88C110.1 160 128 142.1 128 120V72C128 49.9 110.1 32 88 32H40C17.9 32 0 49.9 0 72V120C0 142.1 17.9 160 40 160ZM232 32C209.9 32 192 49.9 192 72V120C192 142.1 209.9 160 232 160H280C302.1 160 320 142.1 320 120V72C320 49.9 302.1 32 280 32H232Z" fill="#222449"/>
</svg>
