<svg width="16" height="15" viewBox="0 0 16 15" fill="none" xmlns="http://www.w3.org/2000/svg">
<path d="M13.5286 0.471404C13.7889 0.211055 14.2111 0.211055 14.4714 0.471405V0.471405C14.7318 0.731754 14.7318 1.15386 14.4714 1.41421L2.21489 13.6707C1.95454 13.9311 1.53243 13.9311 1.27208 13.6707V13.6707C1.01173 13.4104 1.01173 12.9883 1.27208 12.7279L13.5286 0.471404Z" fill="#848484"/>
<path fill-rule="evenodd" clip-rule="evenodd" d="M11.1341 1.9264C10.1633 1.54525 9.1062 1.33594 8 1.33594C4.36364 1.33594 1.25818 3.59776 0 6.79048C0.561394 8.21506 1.49056 9.4543 2.67056 10.39L4.71291 8.34764C4.48874 7.87559 4.36328 7.34769 4.36328 6.79066C4.36328 4.78339 5.99237 3.1543 7.99965 3.1543C8.55667 3.1543 9.08457 3.27975 9.55662 3.50393L11.1341 1.9264ZM8.41396 4.64659C8.27972 4.62088 8.14107 4.60742 7.9992 4.60742C6.79193 4.60742 5.81738 5.58197 5.81738 6.78924C5.81738 6.93111 5.83084 7.06976 5.85655 7.204L8.41396 4.64659ZM6.1137 7.88966L9.09962 4.90374C9.4915 5.13249 9.80517 5.47995 9.99173 5.89724L7.1072 8.78177C6.68991 8.59521 6.34245 8.28154 6.1137 7.88966ZM5.06534 8.93801L3.21517 10.7882C3.59714 11.0451 4.00082 11.2722 4.4229 11.4661L6.03706 9.85191C5.6597 9.60937 5.33004 9.29898 5.06534 8.93801ZM6.65984 10.1719L5.09208 11.7397C6.00013 12.0668 6.97914 12.245 8 12.245C11.6364 12.245 14.7418 9.98321 16 6.79048C15.4661 5.43571 14.5996 4.24856 13.5011 3.3307L11.3809 5.45085C11.5455 5.86553 11.636 6.3176 11.636 6.79066C11.636 8.79793 10.0069 10.427 7.99965 10.427C7.52658 10.427 7.07452 10.3365 6.65984 10.1719ZM10.177 6.65481L7.86477 8.96701C7.90923 8.9697 7.95405 8.97106 7.9992 8.97106C9.20647 8.97106 10.181 7.99651 10.181 6.78924C10.181 6.74409 10.1797 6.69927 10.177 6.65481ZM11.0609 4.82808C10.8184 4.45072 10.508 4.12105 10.147 3.85636L11.7881 2.21529C12.2015 2.41903 12.5962 2.65506 12.9689 2.9201L11.0609 4.82808Z" fill="#848484"/>
</svg>
