<svg width="14" height="14" viewBox="0 0 14 14" fill="none" xmlns="http://www.w3.org/2000/svg">
<path d="M6.99892 3.64C6.33448 3.64 5.68496 3.83706 5.13249 4.20626C4.58003 4.57546 4.14944 5.10022 3.89516 5.71418C3.64089 6.32814 3.57436 7.00373 3.70399 7.6555C3.83362 8.30728 4.15358 8.90597 4.62341 9.37588C5.09324 9.84578 5.69184 10.1658 6.34352 10.2954C6.99519 10.4251 7.67067 10.3585 8.28454 10.1042C8.8984 9.84993 9.42308 9.41926 9.79223 8.86672C10.1614 8.31417 10.3584 7.66455 10.3584 7C10.3584 6.10887 10.0045 5.25424 9.37443 4.62412C8.74441 3.994 7.88991 3.64 6.99892 3.64ZM6.99892 9.24C6.55596 9.24 6.12294 9.10863 5.75464 8.86249C5.38633 8.61636 5.09926 8.26652 4.92975 7.85721C4.76023 7.4479 4.71588 6.99752 4.8023 6.563C4.88872 6.12848 5.10202 5.72935 5.41525 5.41608C5.72847 5.10281 6.12753 4.88947 6.56199 4.80304C6.99644 4.71661 7.44676 4.76097 7.856 4.93051C8.26524 5.10005 8.61503 5.38716 8.86112 5.75552C9.10722 6.12389 9.23857 6.55697 9.23857 7C9.23673 7.59352 9.00017 8.1622 8.58056 8.58188C8.16094 9.00156 7.59235 9.23815 6.99892 9.24ZM10.0784 0H3.9194C2.87991 0 1.88299 0.412999 1.14796 1.14814C0.412935 1.88328 0 2.88035 0 3.92V10.08C0 11.1196 0.412935 12.1167 1.14796 12.8519C1.88299 13.587 2.87991 14 3.9194 14H10.0784C11.1179 14 12.1148 13.587 12.8499 12.8519C13.5849 12.1167 13.9978 11.1196 13.9978 10.08V3.92C13.9978 2.88035 13.5849 1.88328 12.8499 1.14814C12.1148 0.412999 11.1179 0 10.0784 0ZM12.878 10.08C12.878 10.4477 12.8056 10.8118 12.6649 11.1515C12.5242 11.4912 12.318 11.7999 12.058 12.0599C11.7981 12.3199 11.4895 12.5261 11.1498 12.6669C10.8101 12.8076 10.4461 12.88 10.0784 12.88H3.9194C3.55175 12.88 3.18771 12.8076 2.84805 12.6669C2.50839 12.5261 2.19977 12.3199 1.9398 12.0599C1.67984 11.7999 1.47362 11.4912 1.33293 11.1515C1.19224 10.8118 1.11983 10.4477 1.11983 10.08V3.92C1.11983 3.17739 1.41478 2.4652 1.9398 1.9401C2.46482 1.415 3.1769 1.12 3.9194 1.12H10.0784C10.4461 1.12 10.8101 1.19242 11.1498 1.33314C11.4895 1.47385 11.7981 1.6801 12.058 1.9401C12.318 2.2001 12.5242 2.50877 12.6649 2.84849C12.8056 3.1882 12.878 3.5523 12.878 3.92V10.08ZM11.4782 3.36C11.4782 3.52614 11.429 3.68854 11.3367 3.82668C11.2444 3.96482 11.1132 4.07248 10.9598 4.13606C10.8063 4.19964 10.6374 4.21627 10.4745 4.18386C10.3116 4.15145 10.1619 4.07145 10.0445 3.95397C9.92702 3.83649 9.84703 3.68682 9.81463 3.52388C9.78222 3.36093 9.79885 3.19204 9.86242 3.03855C9.92599 2.88506 10.0336 2.75387 10.1718 2.66157C10.3099 2.56926 10.4722 2.52 10.6384 2.52C10.8611 2.52 11.0747 2.6085 11.2322 2.76603C11.3897 2.92356 11.4782 3.13722 11.4782 3.36Z" fill="#A0A0A0"/>
</svg>
