<svg width="70" height="70" viewBox="0 0 70 70" fill="none" xmlns="http://www.w3.org/2000/svg">
<path d="M35.2649 44.8187C31.7866 44.8187 28.9574 47.6489 28.9574 51.1263C28.9574 54.6036 31.7864 57.4344 35.2649 57.4344C38.7435 57.4344 41.5725 54.6042 41.5725 51.1269C41.5725 47.649 38.7435 44.8187 35.2649 44.8187ZM35.2649 55.3647C32.9274 55.3647 31.027 53.4633 31.027 51.1267C31.027 48.7897 32.9284 46.8888 35.2649 46.8888C37.6019 46.8888 39.5029 48.7902 39.5029 51.1267C39.5029 53.4637 37.6025 55.3647 35.2649 55.3647Z" fill="white" stroke="white" stroke-width="0.3"/>
<path d="M14 23L19.0514 27.9415M24.1027 32.8831L19.0514 27.9415M19.0514 27.9415L14 32.8831L24.1027 23" stroke="white" stroke-width="2.5"/>
<path d="M46.3945 23L51.4459 27.9415M56.4972 32.8831L51.4459 27.9415M51.4459 27.9415L46.3945 32.8831L56.4972 23" stroke="white" stroke-width="2.5"/>
<rect x="1.265" y="1.265" width="67.47" height="67.47" rx="33.735" stroke="white" stroke-width="2.53"/>
</svg>
