<svg width="16" height="11" viewBox="0 0 16 11" fill="none" xmlns="http://www.w3.org/2000/svg">
<path fill-rule="evenodd" clip-rule="evenodd" d="M8 0C4.36364 0 1.25818 2.26182 0 5.45455C1.25818 8.64727 4.36364 10.9091 8 10.9091C11.6364 10.9091 14.7418 8.64727 16 5.45455C14.7418 2.26182 11.6364 0 8 0ZM7.99965 9.09304C5.99237 9.09304 4.36328 7.46395 4.36328 5.45668C4.36328 3.4494 5.99237 1.82031 7.99965 1.82031C10.0069 1.82031 11.636 3.4494 11.636 5.45668C11.636 7.46395 10.0069 9.09304 7.99965 9.09304ZM5.81738 5.45526C5.81738 4.24798 6.79193 3.27344 7.9992 3.27344C9.20647 3.27344 10.181 4.24798 10.181 5.45526C10.181 6.66253 9.20647 7.63707 7.9992 7.63707C6.79193 7.63707 5.81738 6.66253 5.81738 5.45526Z" fill="#848484"/>
</svg>
