<svg width="14" height="14" viewBox="0 0 14 14" fill="none" xmlns="http://www.w3.org/2000/svg">
<path d="M9.29707 2.7922L9.2971 2.7922L9.297 2.79052C9.26528 2.29056 9.00719 1.82205 8.57939 1.48056C8.15179 1.13923 7.58647 0.949956 7.00006 0.95C6.39258 0.95 5.80859 1.15314 5.37685 1.51671C4.95876 1.86879 4.71599 2.34417 4.7008 2.84474H1.45001V2.84465L1.44712 2.84482L1.38592 2.84836L1.38591 2.84827L1.38306 2.8486C1.26548 2.8622 1.15624 2.91131 1.07613 2.98866C0.995818 3.0662 0.950005 3.16732 0.95 3.27368H0.949834L0.950165 3.27775L0.954365 3.32928L0.954204 3.3293L0.954851 3.33327C0.97198 3.43834 1.03337 3.53254 1.12465 3.59957C1.21579 3.66652 1.3314 3.70263 1.45 3.70263H2.0394L2.76765 11.2631C2.81479 11.7528 3.0789 12.2075 3.5041 12.5377C3.92912 12.8677 4.48472 13.05 5.06025 13.05H8.93989C9.51541 13.05 10.071 12.8677 10.496 12.5377C10.9212 12.2075 11.1853 11.7528 11.2325 11.2631L11.9601 3.70263H12.5501V3.70272L12.553 3.70255L12.6142 3.69901L12.6142 3.69909L12.6171 3.69876C12.7403 3.68448 12.8542 3.6312 12.935 3.54756C13.0161 3.46366 13.0578 3.35513 13.0488 3.24381C13.0398 3.13264 12.9811 3.03066 12.8881 2.95749C12.7953 2.88447 12.6745 2.84477 12.5501 2.84474H9.29863L9.29707 2.7922ZM6.14569 5.87072L6.14585 5.8707L6.14521 5.86673C6.12808 5.76166 6.06669 5.66746 5.97541 5.60042C5.88427 5.53349 5.76866 5.49737 5.65005 5.49737C5.51996 5.49737 5.39382 5.54081 5.29964 5.62011C5.20522 5.69963 5.15005 5.80951 5.15005 5.92632V9.96842H5.14988L5.15021 9.97248L5.15441 10.024L5.15425 10.024L5.1549 10.028C5.1729 10.1382 5.2395 10.2362 5.33781 10.3035C5.43598 10.3708 5.55954 10.4034 5.6836 10.3963C5.80765 10.3892 5.9253 10.3426 6.01235 10.2642C6.09962 10.1855 6.15002 10.08 6.15006 9.96844V9.96842V5.92632H6.15022L6.14989 5.92226L6.14569 5.87072ZM8.84572 5.87072L8.84588 5.8707L8.84524 5.86673C8.82811 5.76166 8.76673 5.66746 8.67544 5.60042C8.5843 5.53348 8.46869 5.49737 8.35009 5.49737C8.21999 5.49737 8.09385 5.54081 7.99968 5.62011C7.90525 5.69963 7.85008 5.80951 7.85008 5.92632V9.96842H7.84991L7.85024 9.97248L7.85444 10.024L7.85428 10.024L7.85493 10.028C7.87293 10.1382 7.93953 10.2362 8.03784 10.3035C8.13601 10.3708 8.25957 10.4034 8.38363 10.3963C8.50768 10.3892 8.62534 10.3426 8.71238 10.2642C8.79966 10.1855 8.85005 10.08 8.85009 9.96844V9.96842V5.92632H8.85025L8.84992 5.92226L8.84572 5.87072ZM7.00006 1.80789H7.00007C7.33185 1.80786 7.65008 1.91395 7.89063 2.10307C8.13067 2.2918 8.27471 2.54832 8.29716 2.81993L8.29812 2.84474H5.70202L5.70297 2.81993C5.72542 2.54832 5.86947 2.2918 6.10951 2.10307C6.35005 1.91395 6.66829 1.80786 7.00006 1.80789ZM3.04287 3.70263H10.9573L10.2359 11.1924C10.21 11.4619 10.0643 11.7154 9.82455 11.9016C9.58463 12.0879 9.26885 12.1922 8.9399 12.1921H5.06025C4.73128 12.1922 4.41551 12.0879 4.17559 11.9016C3.93584 11.7154 3.79017 11.4619 3.7642 11.1924L3.04287 3.70263Z" fill="#A0A0A0" stroke="#A0A0A0" stroke-width="0.1"/>
</svg>
