<svg width="18" height="14" viewBox="0 0 18 14" fill="none" xmlns="http://www.w3.org/2000/svg">
<path d="M11.4829 1.07345C12.3697 1.07345 13.1704 1.43637 13.7345 2.01902C14.4362 1.88322 15.0976 1.63577 15.692 1.29305C15.462 1.99139 14.9729 2.57725 14.3366 2.94788C14.9592 2.87461 15.5552 2.71466 16.1082 2.47553C15.6936 3.07509 15.1717 3.60299 14.569 4.02488C14.5747 4.1529 14.5779 4.28226 14.5779 4.41106C14.5779 8.36509 11.4751 12.9256 5.80137 12.9256C4.05986 12.9256 2.43775 12.4286 1.07354 11.58C1.31759 11.6084 1.56309 11.6225 1.80879 11.6224C3.25379 11.6224 4.58446 11.1444 5.64037 10.3409C4.28982 10.3178 3.14992 9.45174 2.75895 8.26363C2.95043 8.29951 3.14483 8.31757 3.33964 8.31757C3.62005 8.31757 3.89322 8.28134 4.15136 8.21264C2.74044 7.93862 1.67702 6.72904 1.67702 5.27842V5.24005C2.09321 5.46442 2.56843 5.59914 3.07479 5.61471C2.2467 5.0774 1.70224 4.16278 1.70224 3.1244C1.70224 2.57557 1.85467 2.06135 2.12006 1.62094C3.641 3.43036 5.91382 4.62196 8.47779 4.74729C8.42491 4.52882 8.39755 4.29803 8.39755 4.06588C8.39755 2.41293 9.77867 1.07345 11.4829 1.07345ZM16.1082 2.47608H16.1109H16.1082ZM11.4828 0C9.37531 0 7.62928 1.53998 7.36039 3.52974C5.63605 3.18326 4.06789 2.27024 2.94114 0.930756C2.84041 0.810916 2.7147 0.714564 2.5728 0.648455C2.43091 0.582347 2.27627 0.548082 2.11974 0.548064C2.09163 0.548071 2.06353 0.549145 2.0355 0.551284C1.86536 0.564912 1.70092 0.61885 1.55575 0.70864C1.41059 0.798429 1.28889 0.92149 1.2007 1.06765C0.826495 1.68864 0.628782 2.39998 0.628855 3.12504C0.628855 3.60893 0.71578 4.0802 0.880556 4.52088C0.705063 4.71599 0.6039 4.97122 0.6039 5.24067V5.27905C0.6039 6.33058 1.01956 7.30639 1.70972 8.03772C1.67001 8.22183 1.67886 8.41453 1.73951 8.59917C1.97754 9.32351 2.4109 9.94778 2.9728 10.4233C2.5955 10.5073 2.20616 10.5497 1.80874 10.5497C1.59863 10.5497 1.39415 10.5382 1.20068 10.5146C1.15775 10.5092 1.11535 10.5073 1.07269 10.5073C0.621879 10.5073 0.212663 10.7915 0.0607842 11.225C-0.105854 11.7 0.079048 12.2266 0.506225 12.4925C2.09158 13.4791 3.9227 14 5.80107 14C11.9063 14 15.5788 9.2199 15.6501 4.55064C16.1511 4.13609 16.5937 3.65563 16.9658 3.12232C17.1071 2.93675 17.1835 2.70986 17.1831 2.4766C17.1831 2.11134 17.0004 1.78848 16.7222 1.59442C16.8426 1.18139 16.7052 0.734269 16.3698 0.461059C16.1739 0.301641 15.9338 0.220591 15.6923 0.220591C15.504 0.220414 15.3191 0.269944 15.1561 0.364174C14.8014 0.568695 14.422 0.730528 14.0224 0.847021C13.2995 0.303017 12.4032 1.67737e-05 11.4828 0Z" fill="#A0A0A0"/>
</svg>
