<svg width="20" height="20" viewBox="0 0 20 20" fill="none" xmlns="http://www.w3.org/2000/svg">
<path d="M18.6758 19.7651H0.975686C0.446754 19.7651 -0.00083437 19.3582 -0.00083437 18.8291L-0.000976562 9.87735C-0.000976562 9.36872 0.42634 8.94141 0.975544 8.94141C1.52489 8.94141 1.95206 9.34827 1.95206 9.87735V17.9136H17.7194L17.7195 9.87735C17.7195 9.36872 18.1468 8.94141 18.6961 8.94141C19.2454 8.94141 19.6726 9.34827 19.6726 9.87735V18.8291C19.632 19.3377 19.2047 19.7651 18.6757 19.7651H18.6758Z" fill="white"/>
<path d="M14.3012 4.03842L10.5374 0.274602C10.1713 -0.091534 9.56088 -0.091534 9.17429 0.274602L5.36978 4.03842C5.18671 4.22149 5.08496 4.46573 5.08496 4.73011C5.08496 4.99463 5.18671 5.21842 5.36978 5.40149C5.55285 5.58456 5.7971 5.68631 6.04117 5.68631C6.30569 5.68631 6.54979 5.58456 6.73286 5.40149L8.80808 3.34658V13.0104C8.80808 13.5801 9.25567 14.0277 9.82532 14.0277C10.395 14.0277 10.8426 13.5801 10.8426 13.0104V3.30589L12.9381 5.40142C13.3042 5.76755 13.9146 5.76755 14.3012 5.40142C14.4843 5.21834 14.586 4.9741 14.586 4.73003C14.586 4.46551 14.4843 4.22141 14.3012 4.03834V4.03842Z" fill="white"/>
</svg>
