<svg width="24" height="20" viewBox="0 0 24 20" fill="none" xmlns="http://www.w3.org/2000/svg">
<path d="M16 3.68594C16.4694 3.68594 16.85 3.30538 16.85 2.83594C16.85 2.3665 16.4694 1.98594 16 1.98594V3.68594ZM14.1718 11.0338L14.7237 11.6803L14.1718 11.0338ZM14.1802 14.9735L14.6471 14.2632L14.1802 14.9735ZM16 1.98594H2.97991V3.68594H16V1.98594ZM2.97991 19.9821H18.2034V18.2821H2.97991V19.9821ZM0.15 4.81585V6.99622H1.85V4.81585H0.15ZM0.15 6.99622V17.1522H1.85V6.99622H0.15ZM18.2034 6.14622H1V7.84622H18.2034V6.14622ZM19.3333 11.1566V14.9962H21.0333V11.1566H19.3333ZM20.1833 14.1462H14.2603V15.8462H20.1833V14.1462ZM14.6471 14.2632C14.6119 14.2401 14.5 14.1393 14.3782 13.93C14.2632 13.7325 14.1679 13.4862 14.126 13.223C14.0466 12.7241 14.152 12.1684 14.7237 11.6803L13.6199 10.3873C12.5371 11.3117 12.288 12.4901 12.4471 13.4901C12.5245 13.9764 12.6967 14.4207 12.9091 14.7854C13.1146 15.1383 13.3898 15.4712 13.7134 15.6839L14.6471 14.2632ZM14.2742 11.8462H20.0229V10.1462H14.2742V11.8462ZM21.0333 14.9962V8.97613H19.3333V14.9962H21.0333ZM21.0333 17.1522V16.4288H19.3333V17.1522H21.0333ZM21.0333 16.4288V14.9962H19.3333V16.4288H21.0333ZM14.7237 11.6803C14.5961 11.7891 14.4367 11.8462 14.2742 11.8462V10.1462C14.0372 10.1462 13.804 10.2302 13.6199 10.3873L14.7237 11.6803ZM14.2603 14.1462C14.3705 14.1462 14.5113 14.174 14.6471 14.2632L13.7134 15.6839C13.8969 15.8045 14.0928 15.8462 14.2603 15.8462V14.1462ZM18.2034 7.84622C18.8274 7.84622 19.3333 8.3521 19.3333 8.97613H21.0333C21.0333 7.41321 19.7663 6.14622 18.2034 6.14622V7.84622ZM18.2034 19.9821C19.7663 19.9821 21.0333 18.7151 21.0333 17.1522H19.3333C19.3333 17.7763 18.8274 18.2821 18.2034 18.2821V19.9821ZM2.97991 18.2821C2.35588 18.2821 1.85 17.7763 1.85 17.1522H0.15C0.15 18.7151 1.417 19.9821 2.97991 19.9821V18.2821ZM21.0333 11.1566C21.0333 10.5986 20.581 10.1462 20.0229 10.1462V11.8462C19.6421 11.8462 19.3333 11.5375 19.3333 11.1566H21.0333ZM2.97991 1.98594C1.417 1.98594 0.15 3.25293 0.15 4.81585H1.85C1.85 4.19182 2.35588 3.68594 2.97991 3.68594V1.98594Z" fill="white"/>
<circle cx="20.5853" cy="2.5853" r="2.5853" fill="#DB5151"/>
</svg>
