<svg width="14" height="14" viewBox="0 0 14 14" fill="none" xmlns="http://www.w3.org/2000/svg">
<path fill-rule="evenodd" clip-rule="evenodd" d="M7 14C10.0189 14 12.5938 12.0849 13.5753 9.4046C13.5768 9.40068 13.5783 9.39676 13.5796 9.39275C13.8516 8.64609 14 7.84017 14 6.99995C14 3.13651 10.8635 0 7 0C3.13653 0 0 3.13651 0 6.99995C0 7.77304 0.125617 8.51696 0.35745 9.21254C0.35696 9.22146 0.356666 9.23057 0.356666 9.23959C0.356666 9.36246 0.404482 9.47436 0.482674 9.55745C1.50516 12.1577 4.03911 13.9998 7.00005 13.9998L7 14ZM8.82879 9.70386C8.6582 10.6406 8.40061 11.4491 8.07998 12.0576C7.90214 12.3951 7.70783 12.6667 7.49441 12.8507C7.33734 12.9861 7.17449 13.0715 6.99988 13.0715C6.82537 13.0715 6.66242 12.9862 6.50534 12.8507C6.29193 12.6667 6.09762 12.3951 5.91978 12.0576C5.59918 11.4491 5.34156 10.6407 5.17096 9.70386H8.82879ZM4.23111 9.70386H1.56315C2.31059 11.2028 3.66014 12.35 5.29443 12.8283C5.22682 12.7226 5.16136 12.6099 5.09846 12.4905C4.72395 11.7797 4.42118 10.8192 4.2311 9.70388L4.23111 9.70386ZM12.4367 9.70386H9.7687C9.57861 10.8191 9.27584 11.7796 8.90134 12.4904C8.83833 12.61 8.77288 12.7227 8.70537 12.8283C10.3397 12.3501 11.6891 11.2028 12.4366 9.70383L12.4367 9.70386ZM4.0653 5.63071H1.08354C0.98193 6.07086 0.928234 6.52922 0.928234 7.00005C0.928234 7.61764 1.02063 8.21379 1.1924 8.77542H4.10317C4.04291 8.20937 4.01067 7.6142 4.01067 7.00005C4.01067 6.531 4.02948 6.07312 4.06525 5.63071H4.0653ZM9.00388 5.63071C9.04102 6.07174 9.06052 6.52992 9.06052 7.00005C9.06052 7.61646 9.02701 8.21231 8.9641 8.77542H5.03566C4.97275 8.21231 4.93924 7.61636 4.93924 7.00005C4.93924 6.52992 4.95874 6.07174 4.99588 5.63071H9.00388ZM12.916 5.63071H9.93425C9.96992 6.07301 9.98883 6.531 9.98883 7.00005C9.98883 7.6142 9.95659 8.20937 9.89633 8.77542H12.8071C12.9789 8.21376 13.0713 7.61754 13.0713 7.00005C13.0713 6.52922 13.0176 6.07086 12.916 5.63071H12.916ZM5.29443 1.17177C3.51571 1.69226 2.07412 3.00546 1.37903 4.70235H4.1679C4.34985 3.41385 4.67929 2.30534 5.09847 1.50965C5.16147 1.39011 5.22693 1.27743 5.29444 1.17179L5.29443 1.17177ZM6.99985 0.92857C7.17436 0.92857 7.33731 1.01382 7.49439 1.14933C7.7078 1.33334 7.90211 1.60496 8.07995 1.94241C8.44603 2.63711 8.72999 3.59247 8.89607 4.70216H5.10384C5.26992 3.59239 5.55387 2.63704 5.91995 1.94241C6.09779 1.60496 6.2921 1.33335 6.50552 1.14933C6.66259 1.01392 6.82544 0.92857 7.00005 0.92857H6.99985ZM8.70528 1.17177C8.77289 1.27749 8.83834 1.39017 8.90125 1.50962C9.32043 2.30527 9.64976 3.41375 9.83182 4.70232H12.6207C11.9256 3.00551 10.4841 1.69224 8.70529 1.17174L8.70528 1.17177Z" fill="#A0A0A0"/>
</svg>
