<svg width="320" height="322" viewBox="0 0 320 322" fill="none" xmlns="http://www.w3.org/2000/svg">
<path d="M310.6 55.6C323.1 43.1 323.1 22.8 310.6 10.3C298.1 -2.20001 277.8 -2.20001 265.3 10.3L160 115.7L54.6 10.4C42.1 -2.10001 21.8 -2.10001 9.3 10.4C-3.2 22.9 -3.2 43.2 9.3 55.7L114.7 161L9.4 266.4C-3.1 278.9 -3.1 299.2 9.4 311.7C21.9 324.2 42.2 324.2 54.7 311.7L160 206.3L265.4 311.6C277.9 324.1 298.2 324.1 310.7 311.6C323.2 299.1 323.2 278.8 310.7 266.3L205.3 161L310.6 55.6Z" fill="white"/>
</svg>
